:FULLY-SPECIFIED
:FORCE-ALL-JOINTS-BE-3DOF
:DEGREES
442
root 1.9264 15.5728 -8.35085 4.55158 1.76872 -11.4495
lfemur -46.5458 18.4767 -8.48482
ltibia 54.5378 -0 0
lfoot -18.0686 4.70988 0.212459
ltoes 0.251799 -0 0
rfemur -18.398 -17.909 12.8911
rtibia 54.8145 -0 0
rfoot -0.772782 -13.479 0.80707
rtoes -26.0305 0 0
lowerback 4.72307 2.61687 3.96298
upperback 0.766579 3.6808 0.199559
thorax -1.68972 1.816 -2.25151
lowerneck -6.57694 0.288045 5.97026
upperneck 1.94998 -0.0827149 -0.711218
head 1.77662 -6.2278e-05 -1.23266
lclavicle -3.57783e-14 1.12303e-14 -1.38332e-30
lhumerus -43.3665 -21.5003 99.1279
lradius 51.355 -0 0
lwrist 6.9844 0 0
lhand -26.7128 -6.7157 0.0919512
lfingers 7.12502 -0 0
lthumb -0.142782 23.2462 0.0884901
rclavicle -3.57783e-14 1.12303e-14 -1.38332e-30
rhumerus -49.4953 0.773956 -86.8435
rradius 65.7651 -0 0
rwrist 10.2896 0 0
rhand -27.4249 -21.2986 0.111569
rfingers 7.12502 -0 0
rthumb -0.827598 -51.3496 0.0937425
443
root 1.86893 15.5583 -8.33154 4.63002 3.79044 -11.8215
lfemur -47.5111 19.0782 -8.51265
ltibia 55.2414 -0 0
lfoot -18.1439 4.10094 0.198586
ltoes 0.331446 -0 0
rfemur -17.1388 -17.1903 12.6505
rtibia 52.9243 -0 0
rfoot -1.29763 -13.9992 0.77161
rtoes -28.5706 0 0
lowerback 4.64047 2.47885 4.2054
upperback 0.734962 3.51032 0.358305
thorax -1.67946 1.73028 -2.21041
lowerneck -6.62261 0.103178 5.80811
upperneck 1.80917 -0.319184 -0.649177
head 1.72943 -0.120236 -1.19271
lclavicle -3.64132e-14 1.04139e-14 -1.32727e-30
lhumerus -43.2303 -21.7492 99.3488
lradius 51.5025 -0 0
lwrist 6.59978 0 0
lhand -26.9083 -6.98256 0.0837365
lfingers 7.12502 -0 0
lthumb -0.33155 22.9806 0.0805952
rclavicle -3.64132e-14 1.04139e-14 -1.32727e-30
rhumerus -49.5342 0.458627 -86.7267
rradius 65.7332 -0 0
rwrist 10.3682 0 0
rhand -27.506 -21.5443 0.101458
rfingers 7.12502 -0 0
rthumb -0.906128 -51.592 0.0846985
444
root 1.81582 15.5447 -8.31909 4.70282 5.83669 -12.1918
lfemur -48.4944 19.6967 -8.55505
ltibia 55.9825 -0 0
lfoot -18.2137 3.47066 0.18292
ltoes 0.427184 -0 0
rfemur -15.875 -16.4421 12.444
rtibia 50.9842 -0 0
rfoot -1.85243 -14.5146 0.727186
rtoes -31.1166 0 0
lowerback 4.55609 2.3367 4.4515
upperback 0.704284 3.33416 0.521399
thorax -1.66737 1.64173 -2.16646
lowerneck -6.6703 -0.0874901 5.63904
upperneck 1.66225 -0.562775 -0.581903
head 1.68045 -0.244028 -1.15024
lclavicle -3.70464e-14 9.54935e-15 -1.25534e-30
lhumerus -43.09 -22.0049 99.571
lradius 51.66 -0 0
lwrist 6.2223 0 0
lhand -27.1005 -7.24365 0.0750582
lfingers 7.12502 -0 0
lthumb -0.517173 22.7208 0.0722526
rclavicle -3.70464e-14 9.54935e-15 -1.25534e-30
rhumerus -49.5611 0.147384 -86.6151
rradius 65.6986 -0 0
rwrist 10.4454 0 0
rhand -27.5703 -21.7947 0.0907704
rfingers 7.12502 -0 0
rthumb -0.9683 -51.8383 0.0752417
445
root 1.76732 15.5319 -8.31375 4.77009 7.90586 -12.5605
lfemur -49.4957 20.3317 -8.61297
ltibia 56.7617 -0 0
lfoot -18.2776 2.81896 0.165493
ltoes 0.539553 -0 0
rfemur -14.6074 -15.665 12.2736
rtibia 48.9948 -0 0
rfoot -2.43763 -15.0243 0.673349
rtoes -33.6656 0 0
lowerback 4.46995 2.19043 4.70114
upperback 0.674599 3.1523 0.68881
thorax -1.6534 1.55032 -2.11961
lowerneck -6.71997 -0.283971 5.46299
upperneck 1.50912 -0.813448 -0.509221
head 1.62968 -0.371428 -1.10518
lclavicle -3.76769e-14 8.63582e-15 -1.16661e-30
lhumerus -42.9456 -22.2673 99.7943
lradius 51.8277 -0 0
lwrist 5.85273 0 0
lhand -27.2891 -7.49841 0.0659989
lfingers 7.12502 -0 0
lthumb -0.699289 22.4672 0.0635417
rclavicle -3.76769e-14 8.63582e-15 -1.16661e-30
rhumerus -49.5755 -0.159256 -86.5091
rradius 65.6614 -0 0
rwrist 10.521 0 0
rhand -27.6167 -22.0497 0.0796142
rfingers 7.12502 -0 0
rthumb -1.01336 -52.0883 0.0654815
446
root 1.72371 15.5201 -8.3158 4.83192 9.99634 -12.9276
lfemur -50.5149 20.9827 -8.68741
ltibia 57.5796 -0 0
lfoot -18.3353 2.14577 0.146351
ltoes 0.669093 -0 0
rfemur -13.3367 -14.8599 12.1409
rtibia 46.9563 -0 0
rfoot -3.05368 -15.5273 0.609669
rtoes -36.2146 0 0
lowerback 4.38207 2.04006 4.95415
upperback 0.645958 2.96473 0.860506
thorax -1.63748 1.45606 -2.0698
lowerneck -6.77163 -0.486275 5.27989
upperneck 1.34966 -1.07116 -0.430955
head 1.57708 -0.502423 -1.05748
lclavicle -3.83039e-14 7.6724e-15 -1.06014e-30
lhumerus -42.7971 -22.5365 100.018
lradius 52.0058 -0 0
lwrist 5.49184 0 0
lhand -27.4736 -7.74626 0.0566474
lfingers 7.12502 -0 0
lthumb -0.877538 22.2204 0.0545475
rclavicle -3.83039e-14 7.6724e-15 -1.06014e-30
rhumerus -49.5767 -0.460772 -86.4093
rradius 65.6214 -0 0
rwrist 10.5949 0 0
rhand -27.6447 -22.3091 0.0681103
rfingers 7.12502 -0 0
rthumb -1.04056 -52.342 0.0555378
447
root 1.68525 15.5092 -8.32551 4.88844 12.1065 -13.2931
lfemur -51.5521 21.6495 -8.77936
ltibia 58.4367 -0 0
lfoot -18.3864 1.45099 0.125556
ltoes 0.816342 -0 0
rfemur -12.0631 -14.0278 12.0477
rtibia 44.8692 -0 0
rfoot -3.70101 -16.0224 0.53574
rtoes -38.7607 0 0
lowerback 4.29248 1.8856 5.21039
upperback 0.618409 2.77143 1.03645
thorax -1.61958 1.35893 -2.01699
lowerneck -6.82524 -0.694415 5.08968
upperneck 1.18378 -1.33587 -0.346926
head 1.52264 -0.637002 -1.00708
lclavicle -3.89266e-14 6.65823e-15 -9.35029e-31
lhumerus -42.6444 -22.8124 100.243
lradius 52.1945 -0 0
lwrist 5.14039 0 0
lhand -27.6538 -7.98665 0.0470978
lfingers 7.12502 -0 0
lthumb -1.05156 21.9811 0.0453601
rclavicle -3.89266e-14 6.65823e-15 -9.35029e-31
rhumerus -49.5641 -0.756645 -86.316
rradius 65.5786 -0 0
rwrist 10.6669 0 0
rhand -27.6533 -22.5729 0.0563908
rfingers 7.12502 -0 0
rthumb -1.04916 -52.5992 0.0455402
448
root 1.65222 15.4994 -8.34314 4.9398 14.2348 -13.6572
lfemur -52.6073 22.3316 -8.88985
ltibia 59.3337 -0 0
lfoot -18.4307 0.734546 0.103184
ltoes 0.98184 -0 0
rfemur -10.7871 -13.1698 11.9955
rtibia 42.734 -0 0
rfoot -4.38008 -16.5087 0.451176
rtoes -41.3008 0 0
lowerback 4.20117 1.72707 5.4697
upperback 0.592002 2.57239 1.21662
thorax -1.59964 1.25893 -1.9611
lowerneck -6.88078 -0.908403 4.89231
upperneck 1.01134 -1.60753 -0.256949
head 1.46633 -0.77515 -0.953925
lclavicle -3.9544e-14 5.59242e-15 -7.90397e-31
lhumerus -42.4876 -23.0949 100.468
lradius 52.394 -0 0
lwrist 4.79916 0 0
lhand -27.8292 -8.21901 0.0374493
lfingers 7.12502 -0 0
lthumb -1.221 21.7497 0.0360749
rclavicle -3.9544e-14 5.59242e-15 -7.90397e-31
rhumerus -49.537 -1.04635 -86.2297
rradius 65.5329 -0 0
rwrist 10.7369 0 0
rhand -27.6418 -22.841 0.0445995
rfingers 7.12502 -0 0
rthumb -1.03839 -52.8597 0.0356289
449
root 1.62487 15.4907 -8.36898 4.98615 16.3795 -14.0198
lfemur -53.6806 23.0285 -9.01993
ltibia 60.2712 -0 0
lfoot -18.4677 -0.00364129 0.0793252
ltoes 1.16613 -0 0
rfemur -9.50888 -12.2869 11.986
rtibia 40.551 -0 0
rfoot -5.09133 -16.9852 0.355625
rtoes -43.832 0 0
lowerback 4.10819 1.56446 5.73194
upperback 0.566784 2.36759 1.40096
thorax -1.5776 1.15604 -1.9021
lowerneck -6.93823 -1.12825 4.68772
upperneck 0.832248 -1.88608 -0.160838
head 1.40813 -0.916856 -0.897955
lclavicle -4.01552e-14 4.47409e-15 -6.25386e-31
lhumerus -42.3267 -23.3841 100.693
lradius 52.6046 -0 0
lwrist 4.46892 0 0
lhand -27.9996 -8.44278 0.0278057
lfingers 7.12502 -0 0
lthumb -1.38549 21.5268 0.0267911
rclavicle -4.01552e-14 4.47409e-15 -6.25386e-31
rhumerus -49.4949 -1.32936 -86.1509
rradius 65.4843 -0 0
rwrist 10.8046 0 0
rhand -27.6095 -23.1132 0.0328918
rfingers 7.12502 -0 0
rthumb -1.00752 -53.1234 0.025954
450
root 1.60347 15.4832 -8.40329 5.02767 18.5391 -14.3811
lfemur -54.7723 23.7397 -9.1707
ltibia 61.2497 -0 0
lfoot -18.4971 -0.763658 0.0540885
ltoes 1.36974 -0 0
rfemur -8.22847 -11.3803 12.0208
rtibia 38.3205 -0 0
rfoot -5.83521 -17.4506 0.248764
rtoes -46.3513 0 0
lowerback 4.01353 1.3978 5.99696
upperback 0.542801 2.157 1.58946
thorax -1.55343 1.05026 -1.83992
lowerneck -6.99756 -1.35398 4.47584
upperneck 0.646365 -2.17148 -0.0584016
head 1.34803 -1.06211 -0.839111
lclavicle -4.07595e-14 3.30236e-15 -4.39169e-31
lhumerus -42.1616 -23.6798 100.918
lradius 52.8264 -0 0
lwrist 4.15044 0 0
lhand -28.1644 -8.6574 0.0182749
lfingers 7.12502 -0 0
lthumb -1.54468 21.313 0.0176124
rclavicle -4.07595e-14 3.30236e-15 -4.39169e-31
rhumerus -49.4372 -1.60513 -86.0801
rradius 65.4326 -0 0
rwrist 10.87 0 0
rhand -27.5556 -23.3894 0.0214347
rfingers 7.12502 -0 0
rthumb -0.955798 -53.3901 0.0166757
451
root 1.58829 15.4769 -8.44635 5.06454 20.712 -14.7409
lfemur -55.8826 24.4647 -9.34326
ltibia 62.27 -0 0
lfoot -18.5185 -1.54559 0.027599
ltoes 1.59322 -0 0
rfemur -6.94583 -10.4513 12.1013
rtibia 36.0432 -0 0
rfoot -6.61218 -17.9039 0.130304
rtoes -48.8558 0 0
lowerback 3.91722 1.2271 6.2646
upperback 0.520098 1.94061 1.78207
thorax -1.52707 0.941575 -1.7745
lowerneck -7.05874 -1.58561 4.25662
upperneck 0.453566 -2.46366 0.0505551
head 1.28598 -1.21089 -0.777335
lclavicle -4.13559e-14 2.07633e-15 -2.30957e-31
lhumerus -41.9923 -23.9821 101.142
lradius 53.0596 -0 0
lwrist 3.84447 0 0
lhand -28.3234 -8.8623 0.00896828
lfingers 7.12502 -0 0
lthumb -1.69821 21.1088 0.00864549
rclavicle -4.13559e-14 2.07633e-15 -2.30957e-31
rhumerus -49.3631 -1.87314 -86.0178
rradius 65.3779 -0 0
rwrist 10.9329 0 0
rhand -27.4792 -23.6694 0.0104072
rfingers 7.12502 -0 0
rthumb -0.882475 -53.6597 0.00796432
452
root 1.57959 15.4718 -8.49841 5.09697 22.8966 -15.0995
lfemur -57.0118 25.2029 -9.53875
ltibia 63.3325 0 0
lfoot -18.5317 -2.34952 0
ltoes 1.83711 0 0
rfemur -5.66079 -9.50119 12.2291
rtibia 33.7192 0 0
rfoot -7.4227 -18.344 0
rtoes -51.3424 0 0
lowerback 3.81928 1.05236 6.53472
upperback 0.49872 1.7184 1.97876
thorax -1.49847 0.829975 -1.70581
lowerneck -7.12173 -1.82314 4.02999
upperneck 0.25372 -2.76257 0.166231
head 1.22197 -1.36318 -0.712565
lclavicle -4.19436e-14 7.95139e-16 0
lhumerus -41.8188 -24.2908 101.366
lradius 53.3045 0 0
lwrist 3.55181 0 0
lhand -28.4761 -9.05693 0
lfingers 7.12502 0 0
lthumb -1.84572 20.9148 0
rclavicle -4.19436e-14 7.95139e-16 0
rhumerus -49.2721 -2.13284 -85.9644
rradius 65.3201 0 0
rwrist 10.9931 0 0
rhand -27.3797 -23.9533 0
rfingers 7.12502 0 0
rthumb -0.786809 -773.932 0
